<svg width="236" height="82" viewBox="0 0 236 82" fill="none" xmlns="http://www.w3.org/2000/svg">
<g clip-path="url(#clip0_1109_40188)">
<path d="M235.875 66.1872H192.116L192.144 27.493H222.037L213.351 18.8827L206.536 25.2044L192.277 25.225L195.741 22.0161L213.361 5.23663L234.596 26.2843L235.815 27.493L235.863 35.4698H200.147V58.2242H227.842V44.2725L235.854 44.2502L235.875 66.1872Z" fill="#21BF65"/>
<path d="M45.6018 42.7113V64.9426H22.99C20.9344 64.2839 18.7966 63.3782 16.4943 62.0608C14.192 60.7434 11.972 59.0966 9.83413 56.9558C7.69629 54.8974 5.72291 52.3449 3.99619 49.3807C2.26948 46.4165 1.03611 42.7936 0.213867 38.5944H8.60076C9.25856 41.3939 10.163 43.7817 11.3142 45.8402C12.4653 47.8986 13.7809 49.6277 15.2609 51.0275C16.741 52.5096 18.221 53.6623 19.8655 54.568C21.4278 55.5561 22.9078 56.2148 24.3879 56.7088H37.3793V34.4775H52.5086L59.5799 41.5586V56.7088H63.6912V64.9426H51.3575V45.5108L48.5619 42.7113H45.6018ZM22.7434 72.1061C22.7434 71.0357 23.0723 70.1299 23.8945 69.3066C24.6345 68.5655 25.539 68.1538 26.6901 68.1538C27.7591 68.1538 28.6635 68.5655 29.4036 69.3066C30.0613 70.1299 30.4725 71.0357 30.4725 72.1061C30.4725 73.2588 30.0613 74.1645 29.4036 74.9056C28.6635 75.6466 27.7591 75.976 26.6901 75.976C25.539 75.976 24.6345 75.6466 23.8945 74.9056C23.0723 74.1645 22.7434 73.2588 22.7434 72.1061ZM32.1992 72.1061C32.1992 71.0357 32.5281 70.1299 33.3503 69.3066C34.1726 68.5655 35.077 68.1538 36.2282 68.1538C37.2971 68.1538 38.2016 68.5655 38.9416 69.3066C39.6816 70.1299 40.0927 71.0357 40.0927 72.1061C40.0927 73.2588 39.6816 74.1645 38.9416 74.9056C38.2016 75.6466 37.2971 75.976 36.2282 75.976C35.077 75.976 34.1726 75.6466 33.3503 74.9056C32.5281 74.1645 32.1992 73.2588 32.1992 72.1061Z" fill="#21BF65"/>
<path d="M61.6574 62.8842V58.7673L63.713 56.7088H67.8242V38.5944H76.0467V56.7088H81.8024V38.5944H90.0248V56.7088H95.7805V34.4775H104.003V64.9426H63.713L61.6574 62.8842ZM77.1978 26.9024C77.1978 25.832 77.5267 24.9262 78.3489 24.1029C79.089 23.3618 79.9934 22.9501 81.1446 22.9501C82.2135 22.9501 83.118 23.3618 83.858 24.1029C84.5158 24.9262 84.9269 25.832 84.9269 26.9024C84.9269 28.0551 84.5158 28.9608 83.858 29.7019C83.118 30.4429 82.2135 30.7723 81.1446 30.7723C79.9934 30.7723 79.089 30.4429 78.3489 29.7019C77.5267 28.9608 77.1978 28.0551 77.1978 26.9024ZM86.6536 26.9024C86.6536 25.832 86.9825 24.9262 87.8048 24.1029C88.627 23.3618 89.5315 22.9501 90.6826 22.9501C91.7515 22.9501 92.656 23.3618 93.396 24.1029C94.136 24.9262 94.5472 25.832 94.5472 26.9024C94.5472 28.0551 94.136 28.9608 93.396 29.7019C92.656 30.4429 91.7515 30.7723 90.6826 30.7723C89.5315 30.7723 88.627 30.4429 87.8048 29.7019C86.9825 28.9608 86.6536 28.0551 86.6536 26.9024ZM81.9668 19.2449C81.9668 18.1745 82.2957 17.2688 83.118 16.5277C83.858 15.7867 84.7625 15.375 85.9136 15.375C86.9825 15.375 87.887 15.7867 88.627 16.5277C89.367 17.2688 89.7781 18.1745 89.7781 19.2449C89.7781 20.3976 89.367 21.3034 88.627 22.0444C87.887 22.8678 86.9825 23.1971 85.9136 23.1971C84.7625 23.1971 83.858 22.8678 83.118 22.0444C82.2957 21.3034 81.9668 20.3976 81.9668 19.2449Z" fill="#21BF65"/>
<path d="M112.229 57.4498C112.804 55.6384 113.626 53.6623 114.695 51.4392C115.682 49.2984 117.08 47.0752 118.724 44.9344C120.369 42.7936 122.342 40.8175 124.645 38.9237C126.947 37.1123 129.66 35.6302 132.785 34.4775H140.349V56.7088H144.461V64.9426H140.02C139.527 68.3185 138.54 71.365 136.896 74.1645C135.251 76.964 133.36 79.4342 131.387 81.7396L125.22 76.3053C126.7 74.6585 128.016 72.9294 129.167 70.9533C130.318 69.0595 131.14 67.0834 131.634 64.9426H112.229V57.4498ZM132.127 56.7088V43.864C130.647 44.6874 129.331 45.5931 128.18 46.5812C127.029 47.5693 126.042 48.6397 125.22 49.7924C124.316 50.9451 123.576 52.0979 122.918 53.2506C122.26 54.4033 121.767 55.5561 121.273 56.7088H132.127Z" fill="#21BF65"/>
<path d="M142.436 62.8842V58.7673L144.492 56.7088H169.324C168.666 55.5561 167.762 54.2387 166.775 52.8389C165.706 51.5215 164.39 50.1217 162.746 48.8043C161.101 47.4869 159.128 46.3342 156.826 45.2638C154.523 44.1934 151.728 43.37 148.603 42.7113V34.3951C153.866 35.2185 158.224 36.5359 161.841 38.4297C165.377 40.4058 168.337 42.4643 170.639 44.7698C172.942 47.0752 174.668 49.3807 175.902 51.6862C177.053 53.9916 177.957 55.8854 178.615 57.3675V64.9426H144.492L142.436 62.8842Z" fill="#21BF65"/>
</g>
<defs>
<clipPath id="clip0_1109_40188">
<rect width="235.75" height="82" fill="white" transform="translate(0.125)"/>
</clipPath>
</defs>
</svg>
